<svg xmlns="http://www.w3.org/2000/svg" width="16.82" height="12" viewBox="0 0 16.82 12">
  <defs>
    <style>
      .cls-1 {
        fill-rule: evenodd;
      }
    </style>
  </defs>
  <path id="Forma_1" data-name="Forma 1" class="cls-1" d="M1624.92,35.58l-5.94,5.093a1.221,1.221,0,0,0,.83.326h14.38a1.221,1.221,0,0,0,.83-0.326l-5.94-5.093L1627,37.4Zm9.27-6.58h-14.38a1.22,1.22,0,0,0-.83.327L1627,36.2l8.02-6.876A1.226,1.226,0,0,0,1634.19,29ZM1618.6,40.022l5.8-4.928-5.8-5.041v9.969Zm16.8,0V30.049l-5.8,5.045Z" transform="translate(-1618.59 -29)"/>
</svg>
