<svg xmlns="http://www.w3.org/2000/svg" width="14.94" height="17.938" viewBox="0 0 14.94 17.938">
  <defs>
    <style>
      .cls-1 {
        fill: #b83539;
        fill-rule: evenodd;
      }
    </style>
  </defs>
  <path id="Forma_1" data-name="Forma 1" class="cls-1" d="M1427.43,40.154l-1.28-2.137a6.274,6.274,0,0,1-.91-3.265V32.879a5.235,5.235,0,0,0-3.74-5.007v-1.34a1.49,1.49,0,1,0-2.98,0v1.34a5.235,5.235,0,0,0-3.74,5.007v1.872a6.272,6.272,0,0,1-.91,3.264l-1.28,2.137a0.378,0.378,0,0,0,.32.566h14.2A0.377,0.377,0,0,0,1427.43,40.154Zm-9.77,1.311a2.6,2.6,0,0,0,4.7,0h-4.7Z" transform="translate(-1412.56 -25.031)"/>
</svg>
