<svg xmlns="http://www.w3.org/2000/svg" width="15" height="13" viewBox="0 0 15 13">
  <defs>
    <style>
      .cls-1 {
        fill: #2c2c2c;
        fill-rule: evenodd;
      }
    </style>
  </defs>
  <path id="Forma_1_копия_3" data-name="Forma 1 копия 3" class="cls-1" d="M2197.11,39.9h-1V30.59h4.19l-1.77,2.877a0.317,0.317,0,0,0,.09.431,0.311,0.311,0,0,0,.43-0.1l1.54-2.5,1.54,2.5a0.3,0.3,0,0,0,.42.1,0.317,0.317,0,0,0,.09-0.431l-1.77-2.876h0.02a0.485,0.485,0,0,0,0-.969h-3.49a1.534,1.534,0,0,0-.83-0.619,1.08,1.08,0,0,0-1.07-1,1.1,1.1,0,0,0-1.08,1,1.511,1.511,0,0,0-.82.619h-3.49a0.484,0.484,0,0,0,0,.969h0.02l-1.77,2.877a0.317,0.317,0,0,0,.09.431,0.3,0.3,0,0,0,.42-0.1l1.54-2.5,1.54,2.5a0.31,0.31,0,0,0,.43.1,0.317,0.317,0,0,0,.09-0.431l-1.77-2.876h4.19V39.9h-1a1.086,1.086,0,0,0-1.07,1.1h5.36A1.086,1.086,0,0,0,2197.11,39.9Zm-4.45-5.62h-4.5a0.163,0.163,0,0,0-.16.167,2.415,2.415,0,1,0,4.83,0A0.172,0.172,0,0,0,2192.66,34.278Zm10.18,0h-4.5a0.171,0.171,0,0,0-.17.167,2.415,2.415,0,1,0,4.83,0A0.163,0.163,0,0,0,2202.84,34.278Z" transform="translate(-2188 -28)"/>
</svg>
