<svg xmlns="http://www.w3.org/2000/svg" width="14.68" height="14" viewBox="0 0 14.68 14">
  <defs>
    <style>
      .cls-1 {
        fill-rule: evenodd;
      }
    </style>
  </defs>
  <path id="Forma_1" data-name="Forma 1" class="cls-1" d="M1798.35,28.394l1.86,4.424L1805,33.23a0.377,0.377,0,0,1,.21.66l-3.63,3.145,1.09,4.678a0.375,0.375,0,0,1-.56.408l-4.11-2.48-4.11,2.48a0.374,0.374,0,0,1-.56-0.408l1.09-4.678-3.63-3.146a0.377,0.377,0,0,1,.21-0.66l4.78-.411,1.87-4.424A0.381,0.381,0,0,1,1798.35,28.394Z" transform="translate(-1790.66 -28.188)"/>
</svg>
