<svg xmlns="http://www.w3.org/2000/svg" width="16.65" height="12.75" viewBox="0 0 16.65 12.75">
  <defs>
    <style>
      .cls-1 {
        fill-rule: evenodd;
      }
    </style>
  </defs>
  <path class="cls-1" d="M2036.69,32.3l-0.87.554-0.86.554c-0.29.185-.57,0.368-0.86,0.555l-1.72,1.118c-0.29.186-.57,0.374-0.86,0.562l-0.86.564c-0.28.188-.57,0.375-0.85,0.565l-0.86.568c-0.28.19-.57,0.379-0.85,0.57l-0.85.573c-0.21.138-.41,0.277-0.61,0.416l1.54,2.83a0.623,0.623,0,0,0,.95.171l1.12-.972-0.53-.274-0.2-.063c-0.01,0-.01-0.017.01-0.036l-0.04-.018-0.01-.009a0.48,0.48,0,0,1-.21-0.648,0.34,0.34,0,0,1,.09-0.122c0.4-.4.8-0.791,1.2-1.19l1.2-1.194,1.19-1.2,0.6-.6,0.59-.6,1.19-1.2,1.18-1.207,0.4-.408C2036.84,32.207,2036.76,32.254,2036.69,32.3Zm2.59-2.985a2.082,2.082,0,0,0-.44.2l-15.09,7.333a0.485,0.485,0,0,0,.09.908l1.98,0.517,0.93-.558,0.88-.53c0.3-.177.59-0.355,0.88-0.534l0.88-.535c0.29-.177.58-0.358,0.87-0.538l0.87-.539q0.435-.27.87-0.542l1.74-1.089c0.29-.181.58-0.366,0.87-0.548l0.87-.549,0.86-.549c0.29-.183.58-0.368,0.87-0.552l1.72-1.107a0.33,0.33,0,0,1,.42.5h0c-0.4.407-.79,0.811-1.18,1.219l-1.16,1.223-1.17,1.224-1.16,1.228-0.58.614-0.58.616-1.16,1.233-1.15,1.237q-0.345.369-.69,0.742l0.94,0.436,4.94,1.5a0.486,0.486,0,0,0,.61-0.338l3.09-11.41A0.66,0.66,0,0,0,2039.28,29.317Z" transform="translate(-2023.47 -29.281)"/>
</svg>
