<svg xmlns="http://www.w3.org/2000/svg" width="15" height="13" viewBox="0 0 15 13">
  <defs>
    <style>
      .cls-1 {
        fill: #2c2c2c;
        fill-rule: evenodd;
      }
    </style>
  </defs>
  <path id="Forma_1" data-name="Forma 1" class="cls-1" d="M2406.5,29a7.665,7.665,0,0,0-7.5,7.817,8,8,0,0,0,1.7,4.956c0.17-1.368,1.48-2.524,3.31-3.072a3.48,3.48,0,0,0,4.93.047c1.85,0.6,3.13,1.82,3.18,3.243a7.975,7.975,0,0,0,1.88-5.175A7.665,7.665,0,0,0,2406.5,29Zm0,9.823a2.59,2.59,0,0,1-1.33-.374,3.565,3.565,0,0,1-1.63-3.1,3,3,0,1,1,5.92,0,3.565,3.565,0,0,1-1.68,3.123A2.536,2.536,0,0,1,2406.5,38.825Z" transform="translate(-2399 -29)"/>
</svg>
